<svg width="339" height="429" viewBox="0 0 339 429" fill="none" xmlns="http://www.w3.org/2000/svg">
<path d="M175.768 1.74589C172.006 0.607253 167.992 0.602335 164.227 1.73176L14.253 46.7241C5.79336 49.262 0 57.0484 0 65.8806V241.583C0 243.845 0.392258 246.123 1.15371 248.252C33.4718 338.637 69.574 378.973 160.694 424.431C166.509 427.332 173.391 427.132 179.059 423.952C265.781 375.297 309.311 340.5 337.645 247.831C338.211 245.977 338.5 244.015 338.5 242.077V65.8426C338.5 57.0286 332.73 49.2536 324.294 46.7002L175.768 1.74589Z" fill="#0172F1"/>
<path d="M70.0458 176.649C97.0476 220.649 236.548 223.149 267.046 176.649V194.649C264.547 253.649 66.5474 247.649 70.0458 194.649L70.0458 176.649Z" fill="white"/>
<path d="M70.0458 244.649C66.5474 297.649 264.547 303.649 267.046 244.649V226.649C236.548 273.149 97.0476 270.649 70.0458 226.649L70.0458 244.649Z" fill="white"/>
<path d="M70.0458 294.649C66.5474 347.649 264.547 353.649 267.046 294.649L267.046 275.649C236.548 322.149 97.0476 319.649 70.0458 275.649L70.0458 294.649Z" fill="white"/>
<path d="M149.447 75.8772L114.988 80.7999C112.541 81.1495 111.543 84.143 113.291 85.8911L138.416 111.017C139.124 111.724 139.432 112.737 139.238 113.719L133.284 143.885C132.792 146.377 135.427 148.314 137.659 147.103L165.656 131.904C166.527 131.431 167.576 131.419 168.457 131.872L198.793 147.45C200.977 148.571 203.51 146.738 203.127 144.313L198.286 113.657C198.137 112.709 198.45 111.747 199.128 111.068L224.323 85.873C226.068 84.1283 225.078 81.1406 222.637 80.7833L188.951 75.8537C188.063 75.7237 187.28 75.203 186.816 74.4344L169.944 46.4511C168.706 44.3987 165.681 44.5542 164.66 46.7227L151.737 74.1847C151.307 75.0984 150.446 75.7344 149.447 75.8772Z" fill="white"/>
<path d="M70.0456 145.649C67.5477 197.649 265.579 204.684 267.046 145.649C267.386 131.934 223.548 109.648 219.048 115.649C214.548 121.65 220.026 120.128 220.547 143.149C221.069 166.169 125.354 177.058 116.548 143.149C116.548 143.149 123.048 119.15 116.548 115.649C110.048 112.149 75.6289 127.684 70.0456 145.649Z" fill="white"/>
</svg>
